<svg xmlns="http://www.w3.org/2000/svg" width="1920" height="1080" viewBox="0 0 1920 1080">
  <defs>
    <linearGradient id="bg" x1="0" y1="0" x2="0" y2="1">
      <stop offset="0" stop-color="#0c1330"/>
      <stop offset="0.5" stop-color="#0a0e1f"/>
      <stop offset="1" stop-color="#05070f"/>
    </linearGradient>
    <radialGradient id="spot" cx="0.5" cy="0.30" r="0.55">
      <stop offset="0" stop-color="#2a3a7a" stop-opacity="0.55"/>
      <stop offset="1" stop-color="#2a3a7a" stop-opacity="0"/>
    </radialGradient>
    <radialGradient id="floor" cx="0.5" cy="1" r="0.7">
      <stop offset="0" stop-color="#1b2450" stop-opacity="0.5"/>
      <stop offset="1" stop-color="#1b2450" stop-opacity="0"/>
    </radialGradient>
  </defs>
  <rect width="1920" height="1080" fill="url(#bg)"/>
  <rect width="1920" height="1080" fill="url(#spot)"/>
  <rect width="1920" height="1080" fill="url(#floor)"/>
  <rect x="1208.4" y="24.5" width="17.6" height="33.2" rx="2" fill="#22d3ee" opacity="0.40" transform="rotate(13.9 1217.2 41.1)"/>
  <rect x="905.8" y="-4.4" width="32.1" height="51.0" rx="2" fill="#22d3ee" opacity="0.26" transform="rotate(194.3 921.9 21.2)"/>
  <rect x="20.0" y="826.8" width="32.5" height="77.3" rx="2" fill="#22d3ee" opacity="0.17" transform="rotate(151.4 36.3 865.5)"/>
  <rect x="1615.5" y="460.7" width="11.6" height="20.2" rx="2" fill="#f0abfc" opacity="0.30" transform="rotate(160.6 1621.3 470.8)"/>
  <rect x="982.4" y="382.9" width="22.5" height="45.7" rx="2" fill="#fbbf24" opacity="0.70" transform="rotate(247.2 993.6 405.7)"/>
  <rect x="1219.2" y="297.5" width="33.0" height="78.1" rx="2" fill="#f0abfc" opacity="0.74" transform="rotate(150.7 1235.7 336.6)"/>
  <rect x="1197.4" y="636.7" width="16.8" height="38.1" rx="2" fill="#cbd5e1" opacity="0.46" transform="rotate(297.1 1205.8 655.7)"/>
  <rect x="112.6" y="343.7" width="12.1" height="17.4" rx="2" fill="#a78bfa" opacity="0.23" transform="rotate(32.5 118.6 352.4)"/>
  <rect x="385.3" y="348.8" width="22.3" height="42.7" rx="2" fill="#e5e7eb" opacity="0.41" transform="rotate(328.2 396.5 370.2)"/>
  <rect x="62.7" y="542.9" width="16.4" height="35.6" rx="2" fill="#f0abfc" opacity="0.30" transform="rotate(226.2 70.9 560.7)"/>
  <rect x="280.4" y="308.5" width="25.6" height="50.4" rx="2" fill="#fbbf24" opacity="0.34" transform="rotate(221.5 293.2 333.7)"/>
  <rect x="1660.8" y="469.4" width="32.7" height="75.2" rx="2" fill="#22d3ee" opacity="0.34" transform="rotate(262.4 1677.1 507.1)"/>
  <rect x="534.0" y="796.0" width="31.9" height="46.7" rx="2" fill="#7c5cff" opacity="0.47" transform="rotate(207.3 550.0 819.3)"/>
  <rect x="1039.6" y="701.3" width="13.2" height="31.5" rx="2" fill="#fbbf24" opacity="0.51" transform="rotate(123.9 1046.2 717.0)"/>
  <rect x="1197.6" y="238.0" width="14.0" height="24.1" rx="2" fill="#f59e0b" opacity="0.65" transform="rotate(132.1 1204.6 250.1)"/>
  <rect x="749.6" y="680.6" width="19.1" height="39.9" rx="2" fill="#7c5cff" opacity="0.42" transform="rotate(322.0 759.1 700.6)"/>
  <rect x="1384.4" y="294.1" width="29.6" height="65.3" rx="2" fill="#f59e0b" opacity="0.38" transform="rotate(307.4 1399.2 326.7)"/>
  <rect x="1148.5" y="588.2" width="12.0" height="18.8" rx="2" fill="#f0abfc" opacity="0.65" transform="rotate(92.4 1154.5 597.5)"/>
  <rect x="844.5" y="999.9" width="33.1" height="47.0" rx="2" fill="#e5e7eb" opacity="0.23" transform="rotate(111.7 861.1 1023.4)"/>
  <rect x="762.0" y="716.7" width="23.3" height="46.1" rx="2" fill="#14b8a6" opacity="0.51" transform="rotate(294.3 773.6 739.7)"/>
  <rect x="1007.6" y="504.9" width="17.6" height="31.9" rx="2" fill="#7c5cff" opacity="0.94" transform="rotate(106.6 1016.4 520.8)"/>
  <rect x="872.4" y="356.7" width="31.3" height="62.1" rx="2" fill="#7c5cff" opacity="0.69" transform="rotate(90.0 888.0 387.8)"/>
  <rect x="488.6" y="651.9" width="14.0" height="21.3" rx="2" fill="#22d3ee" opacity="0.54" transform="rotate(28.3 495.6 662.5)"/>
  <rect x="1850.8" y="648.7" width="19.6" height="45.7" rx="2" fill="#22d3ee" opacity="0.18" transform="rotate(307.0 1860.6 671.5)"/>
  <rect x="693.2" y="342.0" width="16.3" height="36.7" rx="2" fill="#f59e0b" opacity="0.60" transform="rotate(165.6 701.4 360.3)"/>
  <rect x="56.4" y="125.7" width="26.0" height="49.8" rx="2" fill="#fbbf24" opacity="0.18" transform="rotate(213.3 69.4 150.6)"/>
  <rect x="1296.4" y="647.5" width="25.6" height="57.7" rx="2" fill="#fbbf24" opacity="0.59" transform="rotate(189.5 1309.2 676.4)"/>
  <rect x="931.7" y="915.8" width="21.7" height="31.3" rx="2" fill="#f0abfc" opacity="0.26" transform="rotate(147.9 942.5 931.5)"/>
  <rect x="466.5" y="560.1" width="10.7" height="16.5" rx="2" fill="#cbd5e1" opacity="0.41" transform="rotate(350.5 471.9 568.4)"/>
  <rect x="951.2" y="60.1" width="30.6" height="65.9" rx="2" fill="#f0abfc" opacity="0.53" transform="rotate(143.6 966.5 93.1)"/>
  <rect x="1528.8" y="48.2" width="11.3" height="19.2" rx="2" fill="#f59e0b" opacity="0.28" transform="rotate(142.6 1534.4 57.8)"/>
  <rect x="290.0" y="-23.6" width="21.5" height="49.0" rx="2" fill="#14b8a6" opacity="0.22" transform="rotate(179.5 300.8 0.9)"/>
  <rect x="435.3" y="340.8" width="26.7" height="46.9" rx="2" fill="#cbd5e1" opacity="0.39" transform="rotate(32.0 448.6 364.2)"/>
  <rect x="648.4" y="6.4" width="29.7" height="56.6" rx="2" fill="#fbbf24" opacity="0.35" transform="rotate(136.7 663.3 34.7)"/>
  <rect x="953.9" y="1065.7" width="33.1" height="79.2" rx="2" fill="#22d3ee" opacity="0.20" transform="rotate(10.7 970.5 1105.3)"/>
  <rect x="634.9" y="461.6" width="30.0" height="45.5" rx="2" fill="#f0abfc" opacity="0.66" transform="rotate(162.6 649.9 484.4)"/>
  <rect x="1084.0" y="177.2" width="11.5" height="23.9" rx="2" fill="#cbd5e1" opacity="0.43" transform="rotate(144.6 1089.8 189.2)"/>
  <rect x="1144.4" y="35.6" width="14.5" height="31.6" rx="2" fill="#fbbf24" opacity="0.27" transform="rotate(304.9 1151.7 51.5)"/>
  <rect x="371.3" y="422.4" width="25.8" height="46.1" rx="2" fill="#22d3ee" opacity="0.54" transform="rotate(159.5 384.2 445.4)"/>
  <rect x="517.3" y="884.1" width="31.6" height="69.9" rx="2" fill="#f59e0b" opacity="0.43" transform="rotate(39.9 533.1 919.1)"/>
  <rect x="458.6" y="13.9" width="29.6" height="66.7" rx="2" fill="#fbbf24" opacity="0.36" transform="rotate(349.4 473.4 47.2)"/>
  <rect x="153.4" y="235.1" width="30.2" height="67.9" rx="2" fill="#a78bfa" opacity="0.33" transform="rotate(110.8 168.5 269.1)"/>
  <rect x="1037.9" y="847.8" width="23.4" height="46.1" rx="2" fill="#22d3ee" opacity="0.56" transform="rotate(155.9 1049.6 870.8)"/>
  <rect x="1321.7" y="506.7" width="10.3" height="19.9" rx="2" fill="#cbd5e1" opacity="0.64" transform="rotate(299.5 1326.9 516.7)"/>
  <rect x="608.3" y="913.3" width="10.9" height="22.2" rx="2" fill="#7c5cff" opacity="0.25" transform="rotate(346.3 613.8 924.4)"/>
  <rect x="399.3" y="848.6" width="31.4" height="52.8" rx="2" fill="#fbbf24" opacity="0.40" transform="rotate(168.3 415.0 875.0)"/>
  <rect x="977.8" y="458.4" width="15.9" height="33.4" rx="2" fill="#e5e7eb" opacity="0.87" transform="rotate(140.0 985.7 475.1)"/>
  <rect x="1443.4" y="1052.3" width="33.0" height="55.3" rx="2" fill="#f59e0b" opacity="0.17" transform="rotate(216.4 1459.9 1080.0)"/>
  <rect x="989.4" y="154.9" width="16.3" height="36.1" rx="2" fill="#fbbf24" opacity="0.58" transform="rotate(305.8 997.6 172.9)"/>
  <rect x="463.5" y="674.7" width="34.0" height="63.4" rx="2" fill="#f0abfc" opacity="0.31" transform="rotate(311.4 480.5 706.4)"/>
  <rect x="741.4" y="282.5" width="23.4" height="48.5" rx="2" fill="#a78bfa" opacity="0.53" transform="rotate(103.6 753.1 306.8)"/>
  <rect x="1924.4" y="275.5" width="22.7" height="32.0" rx="2" fill="#22d3ee" opacity="0.20" transform="rotate(2.3 1935.8 291.5)"/>
  <rect x="932.4" y="560.2" width="21.0" height="37.2" rx="2" fill="#a78bfa" opacity="0.53" transform="rotate(149.7 942.9 578.8)"/>
  <rect x="1552.3" y="644.2" width="27.3" height="48.1" rx="2" fill="#f0abfc" opacity="0.43" transform="rotate(340.7 1565.9 668.2)"/>
  <rect x="1316.2" y="222.4" width="29.9" height="47.7" rx="2" fill="#a78bfa" opacity="0.43" transform="rotate(18.4 1331.1 246.2)"/>
  <rect x="924.4" y="931.7" width="10.4" height="22.9" rx="2" fill="#e5e7eb" opacity="0.33" transform="rotate(58.2 929.5 943.1)"/>
  <rect x="1008.6" y="267.3" width="11.4" height="24.4" rx="2" fill="#14b8a6" opacity="0.59" transform="rotate(227.9 1014.3 279.5)"/>
  <rect x="1023.9" y="529.3" width="33.1" height="53.4" rx="2" fill="#a78bfa" opacity="0.50" transform="rotate(338.9 1040.5 556.0)"/>
  <rect x="722.2" y="351.2" width="19.0" height="45.0" rx="2" fill="#cbd5e1" opacity="0.70" transform="rotate(217.9 731.7 373.7)"/>
  <rect x="348.2" y="309.1" width="26.6" height="55.1" rx="2" fill="#7c5cff" opacity="0.29" transform="rotate(200.7 361.5 336.6)"/>
  <rect x="102.8" y="197.9" width="12.7" height="24.4" rx="2" fill="#7c5cff" opacity="0.25" transform="rotate(319.8 109.2 210.1)"/>
  <rect x="1613.7" y="-23.7" width="20.4" height="29.9" rx="2" fill="#f0abfc" opacity="0.14" transform="rotate(35.2 1623.9 -8.8)"/>
  <rect x="303.9" y="616.5" width="28.8" height="64.5" rx="2" fill="#14b8a6" opacity="0.44" transform="rotate(345.5 318.3 648.7)"/>
  <rect x="1067.8" y="224.2" width="30.0" height="57.5" rx="2" fill="#f59e0b" opacity="0.52" transform="rotate(241.1 1082.8 252.9)"/>
  <rect x="347.9" y="957.6" width="14.1" height="31.1" rx="2" fill="#7c5cff" opacity="0.22" transform="rotate(156.4 355.0 973.1)"/>
  <rect x="1544.5" y="285.2" width="18.2" height="29.2" rx="2" fill="#cbd5e1" opacity="0.49" transform="rotate(257.9 1553.5 299.8)"/>
  <rect x="596.9" y="575.5" width="13.4" height="27.8" rx="2" fill="#f0abfc" opacity="0.63" transform="rotate(8.6 603.6 589.4)"/>
  <rect x="936.1" y="423.5" width="31.2" height="73.5" rx="2" fill="#e5e7eb" opacity="0.72" transform="rotate(318.4 951.7 460.2)"/>
  <rect x="73.9" y="831.5" width="21.6" height="31.4" rx="2" fill="#cbd5e1" opacity="0.17" transform="rotate(18.5 84.7 847.2)"/>
  <rect x="936.6" y="452.0" width="10.2" height="24.5" rx="2" fill="#22d3ee" opacity="0.83" transform="rotate(49.1 941.7 464.3)"/>
  <rect x="1646.5" y="1026.1" width="20.8" height="39.3" rx="2" fill="#a78bfa" opacity="0.13" transform="rotate(312.7 1657.0 1045.8)"/>
  <rect x="1824.7" y="206.8" width="18.9" height="31.6" rx="2" fill="#e5e7eb" opacity="0.25" transform="rotate(18.2 1834.1 222.6)"/>
  <rect x="1048.3" y="93.8" width="30.5" height="52.6" rx="2" fill="#a78bfa" opacity="0.59" transform="rotate(62.2 1063.6 120.1)"/>
  <rect x="767.2" y="327.1" width="24.7" height="50.1" rx="2" fill="#e5e7eb" opacity="0.51" transform="rotate(112.9 779.6 352.2)"/>
  <rect x="779.2" y="145.9" width="12.9" height="24.9" rx="2" fill="#22d3ee" opacity="0.34" transform="rotate(146.5 785.7 158.4)"/>
  <rect x="353.6" y="791.8" width="33.4" height="55.8" rx="2" fill="#cbd5e1" opacity="0.23" transform="rotate(237.8 370.4 819.7)"/>
  <rect x="925.5" y="528.0" width="32.5" height="73.2" rx="2" fill="#7c5cff" opacity="0.95" transform="rotate(344.8 941.8 564.6)"/>
  <rect x="1721.1" y="914.8" width="18.4" height="41.9" rx="2" fill="#a78bfa" opacity="0.14" transform="rotate(339.3 1730.3 935.8)"/>
  <rect x="256.4" y="743.9" width="14.7" height="32.2" rx="2" fill="#14b8a6" opacity="0.30" transform="rotate(69.5 263.7 760.0)"/>
  <rect x="838.4" y="515.0" width="21.9" height="35.5" rx="2" fill="#7c5cff" opacity="0.79" transform="rotate(233.9 849.4 532.8)"/>
  <rect x="981.0" y="980.2" width="24.3" height="53.2" rx="2" fill="#f0abfc" opacity="0.39" transform="rotate(207.6 993.1 1006.8)"/>
  <rect x="1142.0" y="882.3" width="18.6" height="30.6" rx="2" fill="#14b8a6" opacity="0.52" transform="rotate(142.5 1151.3 897.6)"/>
  <rect x="758.2" y="189.3" width="20.8" height="40.1" rx="2" fill="#f59e0b" opacity="0.56" transform="rotate(248.6 768.6 209.4)"/>
  <rect x="1074.0" y="141.5" width="30.7" height="72.2" rx="2" fill="#cbd5e1" opacity="0.43" transform="rotate(289.3 1089.3 177.6)"/>
  <rect x="1065.6" y="309.8" width="32.6" height="75.7" rx="2" fill="#f59e0b" opacity="0.68" transform="rotate(21.6 1081.8 347.6)"/>
  <rect x="1215.2" y="741.6" width="18.6" height="32.6" rx="2" fill="#cbd5e1" opacity="0.35" transform="rotate(270.3 1224.5 757.9)"/>
  <rect x="211.9" y="751.2" width="13.2" height="24.1" rx="2" fill="#f0abfc" opacity="0.18" transform="rotate(73.8 218.5 763.2)"/>
  <rect x="1161.3" y="604.0" width="26.8" height="47.8" rx="2" fill="#e5e7eb" opacity="0.80" transform="rotate(349.3 1174.7 628.0)"/>
  <rect x="850.7" y="122.6" width="27.7" height="64.8" rx="2" fill="#14b8a6" opacity="0.52" transform="rotate(43.2 864.6 155.0)"/>
  <rect x="1648.3" y="418.9" width="16.3" height="32.8" rx="2" fill="#f0abfc" opacity="0.44" transform="rotate(324.4 1656.5 435.3)"/>
  <rect x="191.1" y="714.8" width="20.7" height="34.0" rx="2" fill="#e5e7eb" opacity="0.33" transform="rotate(116.4 201.5 731.8)"/>
  <rect x="1255.1" y="759.1" width="19.2" height="28.4" rx="2" fill="#cbd5e1" opacity="0.57" transform="rotate(7.0 1264.7 773.3)"/>
  <rect x="1196.4" y="770.5" width="18.0" height="36.8" rx="2" fill="#e5e7eb" opacity="0.39" transform="rotate(134.4 1205.4 788.9)"/>
  <rect x="1335.0" y="883.7" width="17.7" height="25.0" rx="2" fill="#f59e0b" opacity="0.30" transform="rotate(352.2 1343.9 896.2)"/>
  <rect x="1216.9" y="17.1" width="26.1" height="53.2" rx="2" fill="#a78bfa" opacity="0.29" transform="rotate(3.3 1230.0 43.7)"/>
  <rect x="1709.0" y="22.6" width="20.1" height="43.0" rx="2" fill="#fbbf24" opacity="0.13" transform="rotate(318.6 1719.0 44.2)"/>
  <rect x="507.8" y="965.9" width="10.3" height="20.5" rx="2" fill="#22d3ee" opacity="0.22" transform="rotate(74.7 513.0 976.1)"/>
  <rect x="1518.5" y="958.1" width="11.4" height="23.0" rx="2" fill="#f59e0b" opacity="0.27" transform="rotate(32.6 1524.2 969.6)"/>
  <rect x="1220.6" y="421.3" width="27.3" height="50.0" rx="2" fill="#f59e0b" opacity="0.47" transform="rotate(182.1 1234.3 446.3)"/>
  <rect x="308.8" y="730.4" width="32.8" height="62.9" rx="2" fill="#a78bfa" opacity="0.43" transform="rotate(103.9 325.2 761.9)"/>
  <rect x="701.6" y="96.0" width="14.7" height="29.2" rx="2" fill="#22d3ee" opacity="0.49" transform="rotate(315.7 709.0 110.6)"/>
  <rect x="1369.3" y="294.1" width="31.3" height="56.8" rx="2" fill="#cbd5e1" opacity="0.36" transform="rotate(315.7 1384.9 322.5)"/>
  <rect x="257.9" y="586.7" width="29.0" height="67.1" rx="2" fill="#7c5cff" opacity="0.38" transform="rotate(112.8 272.4 620.2)"/>
  <rect x="426.1" y="139.3" width="10.6" height="18.3" rx="2" fill="#22d3ee" opacity="0.39" transform="rotate(112.6 431.4 148.5)"/>
  <rect x="1299.3" y="979.5" width="30.0" height="61.0" rx="2" fill="#cbd5e1" opacity="0.23" transform="rotate(302.1 1314.3 1010.0)"/>
  <rect x="1689.4" y="872.7" width="13.2" height="26.0" rx="2" fill="#f59e0b" opacity="0.29" transform="rotate(149.6 1696.0 885.7)"/>
  <rect x="1709.9" y="188.4" width="27.8" height="39.5" rx="2" fill="#e5e7eb" opacity="0.31" transform="rotate(320.6 1723.8 208.2)"/>
  <rect x="837.4" y="684.2" width="14.7" height="25.7" rx="2" fill="#e5e7eb" opacity="0.50" transform="rotate(322.9 844.7 697.1)"/>
  <rect x="1030.5" y="829.9" width="24.3" height="44.2" rx="2" fill="#22d3ee" opacity="0.43" transform="rotate(158.2 1042.7 851.9)"/>
  <rect x="787.6" y="670.0" width="29.9" height="56.7" rx="2" fill="#22d3ee" opacity="0.42" transform="rotate(257.2 802.5 698.4)"/>
  <rect x="1118.6" y="261.9" width="21.2" height="39.9" rx="2" fill="#f0abfc" opacity="0.68" transform="rotate(356.0 1129.2 281.9)"/>
  <rect x="396.8" y="-19.1" width="25.7" height="45.1" rx="2" fill="#f59e0b" opacity="0.23" transform="rotate(104.8 409.7 3.4)"/>
  <rect x="406.8" y="1021.8" width="25.0" height="44.9" rx="2" fill="#f0abfc" opacity="0.27" transform="rotate(154.2 419.3 1044.2)"/>
  <rect x="1850.7" y="408.7" width="21.9" height="33.6" rx="2" fill="#f0abfc" opacity="0.31" transform="rotate(242.9 1861.6 425.5)"/>
  <rect x="1450.6" y="615.8" width="24.5" height="44.6" rx="2" fill="#14b8a6" opacity="0.47" transform="rotate(31.9 1462.8 638.2)"/>
  <rect x="637.0" y="694.9" width="32.2" height="46.8" rx="2" fill="#a78bfa" opacity="0.61" transform="rotate(249.4 653.1 718.3)"/>
  <rect x="219.2" y="-44.6" width="28.7" height="49.5" rx="2" fill="#14b8a6" opacity="0.11" transform="rotate(123.4 233.5 -19.8)"/>
  <rect x="-7.8" y="730.6" width="32.2" height="52.6" rx="2" fill="#fbbf24" opacity="0.18" transform="rotate(319.2 8.3 756.9)"/>
  <rect x="1058.2" y="20.7" width="31.2" height="55.3" rx="2" fill="#a78bfa" opacity="0.23" transform="rotate(86.0 1073.8 48.3)"/>
  <rect x="1630.6" y="929.2" width="27.3" height="48.3" rx="2" fill="#e5e7eb" opacity="0.16" transform="rotate(237.6 1644.2 953.4)"/>
  <rect x="-8.2" y="42.2" width="25.3" height="47.6" rx="2" fill="#f0abfc" opacity="0.08" transform="rotate(80.6 4.5 66.0)"/>
  <rect x="1864.8" y="171.5" width="27.5" height="53.0" rx="2" fill="#e5e7eb" opacity="0.17" transform="rotate(320.2 1878.6 198.0)"/>
  <rect x="1012.1" y="385.2" width="21.4" height="40.5" rx="2" fill="#22d3ee" opacity="0.75" transform="rotate(14.3 1022.8 405.4)"/>
  <rect x="1737.9" y="863.9" width="30.3" height="45.7" rx="2" fill="#7c5cff" opacity="0.16" transform="rotate(189.1 1753.0 886.8)"/>
  <rect x="174.7" y="786.5" width="15.4" height="28.9" rx="2" fill="#e5e7eb" opacity="0.21" transform="rotate(92.6 182.4 800.9)"/>
  <rect x="544.8" y="371.7" width="24.2" height="48.3" rx="2" fill="#22d3ee" opacity="0.48" transform="rotate(175.2 556.9 395.8)"/>
  <rect x="710.2" y="1045.4" width="14.0" height="27.9" rx="2" fill="#f59e0b" opacity="0.28" transform="rotate(337.2 717.2 1059.4)"/>
  <rect x="1585.6" y="718.8" width="32.0" height="47.2" rx="2" fill="#cbd5e1" opacity="0.23" transform="rotate(100.0 1601.6 742.4)"/>
  <rect x="1554.1" y="535.6" width="11.4" height="22.7" rx="2" fill="#e5e7eb" opacity="0.35" transform="rotate(280.3 1559.8 547.0)"/>
  <rect x="1200.7" y="356.0" width="24.2" height="34.5" rx="2" fill="#cbd5e1" opacity="0.59" transform="rotate(211.5 1212.8 373.2)"/>
  <rect x="900.0" y="202.2" width="18.2" height="40.9" rx="2" fill="#e5e7eb" opacity="0.59" transform="rotate(64.6 909.1 222.7)"/>
  <rect x="510.1" y="-8.6" width="31.2" height="60.0" rx="2" fill="#7c5cff" opacity="0.25" transform="rotate(11.6 525.8 21.4)"/>
  <rect x="1258.6" y="494.3" width="15.1" height="32.1" rx="2" fill="#a78bfa" opacity="0.43" transform="rotate(0.2 1266.1 510.4)"/>
  <rect x="1680.8" y="725.4" width="27.7" height="62.3" rx="2" fill="#22d3ee" opacity="0.31" transform="rotate(179.0 1694.7 756.6)"/>
  <rect x="1848.4" y="704.6" width="17.2" height="26.0" rx="2" fill="#22d3ee" opacity="0.25" transform="rotate(287.3 1857.0 717.6)"/>
  <rect x="1060.2" y="478.5" width="31.5" height="59.0" rx="2" fill="#f59e0b" opacity="0.67" transform="rotate(71.9 1076.0 508.0)"/>
  <rect x="1332.9" y="175.6" width="19.5" height="38.1" rx="2" fill="#14b8a6" opacity="0.30" transform="rotate(98.9 1342.7 194.6)"/>
  <rect x="759.2" y="513.5" width="31.6" height="52.1" rx="2" fill="#14b8a6" opacity="0.85" transform="rotate(202.0 775.0 539.5)"/>
  <rect x="693.8" y="1039.8" width="24.1" height="42.9" rx="2" fill="#f59e0b" opacity="0.16" transform="rotate(235.4 705.8 1061.2)"/>
  <rect x="1237.9" y="225.2" width="11.0" height="20.5" rx="2" fill="#cbd5e1" opacity="0.64" transform="rotate(109.2 1243.4 235.5)"/>
  <rect x="1487.2" y="265.1" width="13.6" height="29.4" rx="2" fill="#f59e0b" opacity="0.51" transform="rotate(344.6 1493.9 279.8)"/>
  <rect x="1069.6" y="1030.5" width="27.9" height="58.2" rx="2" fill="#cbd5e1" opacity="0.25" transform="rotate(7.1 1083.6 1059.7)"/>
  <rect x="328.1" y="323.9" width="16.9" height="28.7" rx="2" fill="#e5e7eb" opacity="0.27" transform="rotate(59.2 336.5 338.2)"/>
  <rect x="1661.8" y="922.7" width="32.1" height="64.5" rx="2" fill="#7c5cff" opacity="0.14" transform="rotate(143.7 1677.8 955.0)"/>
  <rect x="1131.8" y="665.5" width="22.7" height="41.2" rx="2" fill="#22d3ee" opacity="0.61" transform="rotate(122.4 1143.2 686.1)"/>
  <rect x="491.7" y="-7.7" width="11.8" height="19.8" rx="2" fill="#cbd5e1" opacity="0.21" transform="rotate(183.4 497.6 2.2)"/>
  <rect x="1097.8" y="1089.9" width="11.1" height="25.4" rx="2" fill="#22d3ee" opacity="0.14" transform="rotate(234.3 1103.3 1102.6)"/>
  <rect x="1786.2" y="380.9" width="27.8" height="60.7" rx="2" fill="#fbbf24" opacity="0.20" transform="rotate(283.1 1800.1 411.3)"/>
  <rect x="822.7" y="969.8" width="23.7" height="39.8" rx="2" fill="#f59e0b" opacity="0.21" transform="rotate(339.5 834.6 989.7)"/>
  <rect x="239.2" y="109.5" width="31.4" height="54.1" rx="2" fill="#f59e0b" opacity="0.20" transform="rotate(165.9 254.9 136.6)"/>
  <rect x="578.0" y="610.4" width="25.3" height="36.6" rx="2" fill="#f0abfc" opacity="0.43" transform="rotate(274.0 590.7 628.7)"/>
  <rect x="1812.0" y="261.8" width="29.5" height="68.9" rx="2" fill="#f59e0b" opacity="0.26" transform="rotate(35.1 1826.7 296.3)"/>
  <rect x="377.9" y="273.9" width="22.1" height="33.3" rx="2" fill="#f0abfc" opacity="0.33" transform="rotate(13.0 389.0 290.6)"/>
  <rect x="1273.6" y="993.5" width="26.2" height="52.9" rx="2" fill="#f59e0b" opacity="0.29" transform="rotate(172.4 1286.7 1019.9)"/>
  <rect x="1798.7" y="711.8" width="20.6" height="37.3" rx="2" fill="#14b8a6" opacity="0.27" transform="rotate(329.1 1809.0 730.4)"/>
  <rect x="847.3" y="330.8" width="18.9" height="41.9" rx="2" fill="#f59e0b" opacity="0.48" transform="rotate(168.6 856.7 351.7)"/>
  <rect x="1781.0" y="545.7" width="30.3" height="57.2" rx="2" fill="#cbd5e1" opacity="0.26" transform="rotate(86.2 1796.2 574.3)"/>
  <rect x="556.2" y="36.2" width="19.7" height="40.3" rx="2" fill="#fbbf24" opacity="0.32" transform="rotate(271.4 566.0 56.3)"/>
  <rect x="701.8" y="568.7" width="18.4" height="29.6" rx="2" fill="#7c5cff" opacity="0.65" transform="rotate(340.3 711.0 583.5)"/>
  <rect x="222.1" y="935.9" width="23.6" height="40.8" rx="2" fill="#f59e0b" opacity="0.22" transform="rotate(186.9 233.9 956.3)"/>
  <rect x="1117.3" y="44.9" width="28.6" height="47.5" rx="2" fill="#14b8a6" opacity="0.27" transform="rotate(103.8 1131.7 68.6)"/>
  <rect x="1606.1" y="171.5" width="10.0" height="23.4" rx="2" fill="#cbd5e1" opacity="0.23" transform="rotate(119.6 1611.1 183.2)"/>
  <rect x="264.4" y="30.6" width="20.5" height="31.0" rx="2" fill="#f59e0b" opacity="0.20" transform="rotate(196.2 274.7 46.1)"/>
  <rect x="757.6" y="10.6" width="30.6" height="56.6" rx="2" fill="#22d3ee" opacity="0.41" transform="rotate(226.9 772.8 38.9)"/>
  <rect x="1166.1" y="549.4" width="30.0" height="53.5" rx="2" fill="#f0abfc" opacity="0.45" transform="rotate(310.2 1181.1 576.1)"/>
  <rect x="316.6" y="583.2" width="22.5" height="33.4" rx="2" fill="#7c5cff" opacity="0.28" transform="rotate(133.8 327.8 599.9)"/>
  <rect x="-24.3" y="114.9" width="16.8" height="34.8" rx="2" fill="#cbd5e1" opacity="0.11" transform="rotate(29.9 -15.9 132.3)"/>
  <rect x="1632.3" y="664.0" width="15.6" height="25.4" rx="2" fill="#f0abfc" opacity="0.36" transform="rotate(129.5 1640.1 676.7)"/>
  <rect x="1524.5" y="179.5" width="27.9" height="51.4" rx="2" fill="#fbbf24" opacity="0.44" transform="rotate(193.7 1538.4 205.2)"/>
  <rect x="1084.7" y="50.6" width="12.9" height="23.8" rx="2" fill="#e5e7eb" opacity="0.35" transform="rotate(259.1 1091.2 62.5)"/>
  <rect x="1094.1" y="402.7" width="21.1" height="46.6" rx="2" fill="#a78bfa" opacity="0.68" transform="rotate(312.4 1104.7 426.0)"/>
  <rect x="570.6" y="615.9" width="25.6" height="60.5" rx="2" fill="#22d3ee" opacity="0.47" transform="rotate(208.2 583.4 646.1)"/>
  <rect x="264.2" y="575.2" width="29.0" height="52.5" rx="2" fill="#14b8a6" opacity="0.31" transform="rotate(157.5 278.7 601.4)"/>
  <rect x="1687.5" y="763.5" width="32.0" height="54.0" rx="2" fill="#e5e7eb" opacity="0.34" transform="rotate(327.5 1703.5 790.5)"/>
  <rect x="805.6" y="604.8" width="33.1" height="54.1" rx="2" fill="#7c5cff" opacity="0.61" transform="rotate(29.5 822.1 631.8)"/>
  <rect x="1221.9" y="62.8" width="22.6" height="37.3" rx="2" fill="#e5e7eb" opacity="0.51" transform="rotate(345.3 1233.2 81.5)"/>
  <rect x="687.6" y="392.7" width="11.6" height="17.1" rx="2" fill="#e5e7eb" opacity="0.59" transform="rotate(43.6 693.4 401.3)"/>
  <rect x="1600.0" y="828.0" width="24.7" height="57.2" rx="2" fill="#a78bfa" opacity="0.25" transform="rotate(289.6 1612.3 856.6)"/>
  <rect x="973.8" y="955.9" width="26.7" height="57.4" rx="2" fill="#a78bfa" opacity="0.33" transform="rotate(104.3 987.1 984.7)"/>
  <rect x="95.2" y="312.1" width="32.1" height="50.7" rx="2" fill="#fbbf24" opacity="0.27" transform="rotate(94.8 111.2 337.5)"/>
  <rect x="822.8" y="255.7" width="23.7" height="45.7" rx="2" fill="#f0abfc" opacity="0.45" transform="rotate(235.0 834.7 278.5)"/>
  <rect x="1143.0" y="151.6" width="10.1" height="19.3" rx="2" fill="#a78bfa" opacity="0.53" transform="rotate(86.3 1148.1 161.2)"/>
  <rect x="148.5" y="657.0" width="32.2" height="53.2" rx="2" fill="#cbd5e1" opacity="0.29" transform="rotate(259.5 164.6 683.6)"/>
  <rect x="1348.8" y="373.4" width="22.3" height="47.0" rx="2" fill="#f59e0b" opacity="0.61" transform="rotate(110.4 1359.9 396.9)"/>
  <rect x="972.6" y="-32.3" width="21.0" height="30.0" rx="2" fill="#e5e7eb" opacity="0.41" transform="rotate(312.5 983.1 -17.2)"/>
  <rect x="948.8" y="1103.4" width="14.5" height="28.3" rx="2" fill="#cbd5e1" opacity="0.19" transform="rotate(326.8 956.1 1117.6)"/>
  <rect x="148.2" y="842.8" width="11.1" height="16.1" rx="2" fill="#7c5cff" opacity="0.21" transform="rotate(13.1 153.8 850.9)"/>
</svg>
